<svg xmlns="http://www.w3.org/2000/svg" width="824" height="644" viewBox="-12 -6 824 644" role="img"><title>Zeit, RAM und Platz je Werkzeug</title><style>
    .grund { fill: #ffffff; }
    text { font: 12px system-ui, sans-serif; fill: #24292f; }
    .kopf, .welt { font-weight: 600; }
    .fuss { fill: #57606a; }
    rect.eigen { fill: #2f81f7; } rect.fremd { fill: #8c959f; }
    .name.eigen { font-weight: 600; }
    @media (prefers-color-scheme: dark) {
      .grund { fill: #0d1117; } text { fill: #e6edf3; } .fuss { fill: #8d96a0; } rect.fremd { fill: #6e7681; }
    }
    </style><rect class="grund" x="-12" y="-6" width="824" height="644" rx="6"/><text class="kopf" x="190" y="16">Zeit</text><text class="kopf" x="340" y="16">RAM</text><text class="kopf" x="490" y="16">Platz</text><text class="kopf" x="640" y="16">s je Mpx</text><text class="welt" x="0" y="48">3k</text><text class="name fremd" x="0" y="68.0">squaremap</text><rect class="fremd" x="190" y="56" width="4.2" height="16"/><text class="wert" x="198.2" y="68.0">11,9 s</text><rect class="fremd" x="340" y="56" width="66.8" height="16"/><text class="wert" x="410.8" y="68.0">4,67 GiB</text><rect class="fremd" x="490" y="56" width="2.9" height="16"/><text class="wert" x="496.9" y="68.0">7,4 MB</text><rect class="fremd" x="640" y="56" width="70.6" height="16"/><text class="wert" x="714.6" y="68.0">1,30 s/Mpx</text><text class="name fremd" x="0" y="90.0">Pl3xMap</text><rect class="fremd" x="190" y="78" width="1.9" height="16"/><text class="wert" x="195.9" y="90.0">5,3 s</text><rect class="fremd" x="340" y="78" width="80.0" height="16"/><text class="wert" x="424.0" y="90.0">5,59 GiB</text><rect class="fremd" x="490" y="78" width="7.1" height="16"/><text class="wert" x="501.1" y="90.0">17,9 MB</text><rect class="fremd" x="640" y="78" width="31.4" height="16"/><text class="wert" x="675.4" y="90.0">0,580 s/Mpx</text><text class="name fremd" x="0" y="112.0">Dynmap flat</text><rect class="fremd" x="190" y="100" width="80.0" height="16"/><text class="wert" x="274.0" y="112.0">225 s</text><rect class="fremd" x="340" y="100" width="42.4" height="16"/><text class="wert" x="386.4" y="112.0">2,96 GiB</text><rect class="fremd" x="490" y="100" width="65.6" height="16"/><text class="wert" x="559.6" y="112.0">165 MB</text><rect class="fremd" x="640" y="100" width="80.0" height="16"/><text class="wert" x="724.0" y="112.0">1,48 s/Mpx</text><text class="name eigen" x="0" y="134.0">Heroic Plugin</text><rect class="eigen" x="190" y="122" width="5.1" height="16"/><text class="wert" x="199.1" y="134.0">14,3 s</text><rect class="eigen" x="340" y="122" width="16.3" height="16"/><text class="wert" x="360.3" y="134.0">1,14 GiB</text><rect class="eigen" x="490" y="122" width="79.8" height="16"/><text class="wert" x="573.8" y="134.0">201 MB</text><rect class="eigen" x="640" y="122" width="5.3" height="16"/><text class="wert" x="649.3" y="134.0">0,098 s/Mpx</text><text class="name eigen" x="0" y="156.0">Heroic CLI</text><rect class="eigen" x="190" y="144" width="5.1" height="16"/><text class="wert" x="199.1" y="156.0">14,3 s</text><rect class="eigen" x="340" y="144" width="15.7" height="16"/><text class="wert" x="359.7" y="156.0">1,10 GiB</text><rect class="eigen" x="490" y="144" width="80.0" height="16"/><text class="wert" x="574.0" y="156.0">201 MB</text><rect class="eigen" x="640" y="144" width="5.3" height="16"/><text class="wert" x="649.3" y="156.0">0,098 s/Mpx</text><text class="name eigen" x="0" y="178.0">Heroic CLI kompakt</text><rect class="eigen" x="190" y="166" width="5.7" height="16"/><text class="wert" x="199.7" y="178.0">15,9 s</text><rect class="eigen" x="340" y="166" width="16.7" height="16"/><text class="wert" x="360.7" y="178.0">1,17 GiB</text><rect class="eigen" x="490" y="166" width="54.6" height="16"/><text class="wert" x="548.6" y="178.0">138 MB</text><rect class="eigen" x="640" y="166" width="5.9" height="16"/><text class="wert" x="649.9" y="178.0">0,109 s/Mpx</text><text class="welt" x="0" y="210">3k iso</text><text class="name fremd" x="0" y="230.0">Dynmap surface</text><rect class="fremd" x="190" y="218" width="80.0" height="16"/><text class="wert" x="274.0" y="230.0">3 680 s</text><rect class="fremd" x="340" y="218" width="80.0" height="16"/><text class="wert" x="424.0" y="230.0">3,05 GiB</text><rect class="fremd" x="490" y="218" width="80.0" height="16"/><text class="wert" x="574.0" y="230.0">2 679 MB</text><rect class="fremd" x="640" y="218" width="80.0" height="16"/><text class="wert" x="724.0" y="230.0">2,69 s/Mpx</text><text class="name eigen" x="0" y="252.0">Heroic Plugin</text><rect class="eigen" x="190" y="240" width="1.0" height="16"/><text class="wert" x="195.0" y="252.0">20,5 s</text><rect class="eigen" x="340" y="240" width="44.9" height="16"/><text class="wert" x="388.9" y="252.0">1,71 GiB</text><rect class="eigen" x="490" y="240" width="28.1" height="16"/><text class="wert" x="522.1" y="252.0">942 MB</text><rect class="eigen" x="640" y="240" width="1.0" height="16"/><text class="wert" x="645.0" y="252.0">0,032 s/Mpx</text><text class="name eigen" x="0" y="274.0">Heroic CLI</text><rect class="eigen" x="190" y="262" width="1.0" height="16"/><text class="wert" x="195.0" y="274.0">20,7 s</text><rect class="eigen" x="340" y="262" width="48.5" height="16"/><text class="wert" x="392.5" y="274.0">1,85 GiB</text><rect class="eigen" x="490" y="262" width="28.1" height="16"/><text class="wert" x="522.1" y="274.0">942 MB</text><rect class="eigen" x="640" y="262" width="1.0" height="16"/><text class="wert" x="645.0" y="274.0">0,032 s/Mpx</text><text class="welt" x="0" y="306">5k</text><text class="name fremd" x="0" y="326.0">squaremap</text><rect class="fremd" x="190" y="314" width="5.8" height="16"/><text class="wert" x="199.8" y="326.0">31,3 s</text><rect class="fremd" x="340" y="314" width="63.6" height="16"/><text class="wert" x="407.6" y="326.0">5,08 GiB</text><rect class="fremd" x="490" y="314" width="2.9" height="16"/><text class="wert" x="496.9" y="326.0">19,6 MB</text><rect class="fremd" x="640" y="314" width="80.0" height="16"/><text class="wert" x="724.0" y="326.0">1,23 s/Mpx</text><text class="name fremd" x="0" y="348.0">Pl3xMap</text><rect class="fremd" x="190" y="336" width="2.5" height="16"/><text class="wert" x="196.5" y="348.0">13,3 s</text><rect class="fremd" x="340" y="336" width="80.0" height="16"/><text class="wert" x="424.0" y="348.0">6,39 GiB</text><rect class="fremd" x="490" y="336" width="7.0" height="16"/><text class="wert" x="501.0" y="348.0">46,8 MB</text><rect class="fremd" x="640" y="336" width="34.0" height="16"/><text class="wert" x="678.0" y="348.0">0,524 s/Mpx</text><text class="name fremd" x="0" y="370.0">Dynmap flat</text><rect class="fremd" x="190" y="358" width="80.0" height="16"/><text class="wert" x="274.0" y="370.0">430 s</text><rect class="fremd" x="340" y="358" width="37.4" height="16"/><text class="wert" x="381.4" y="370.0">2,99 GiB</text><rect class="fremd" x="490" y="358" width="67.2" height="16"/><text class="wert" x="561.2" y="370.0">450 MB</text><rect class="fremd" x="640" y="358" width="67.0" height="16"/><text class="wert" x="711.0" y="370.0">1,03 s/Mpx</text><text class="name eigen" x="0" y="392.0">Heroic Plugin</text><rect class="eigen" x="190" y="380" width="7.0" height="16"/><text class="wert" x="201.0" y="392.0">37,4 s</text><rect class="eigen" x="340" y="380" width="14.4" height="16"/><text class="wert" x="358.4" y="392.0">1,15 GiB</text><rect class="eigen" x="490" y="380" width="79.8" height="16"/><text class="wert" x="573.8" y="392.0">535 MB</text><rect class="eigen" x="640" y="380" width="6.0" height="16"/><text class="wert" x="650.0" y="392.0">0,092 s/Mpx</text><text class="name eigen" x="0" y="414.0">Heroic CLI</text><rect class="eigen" x="190" y="402" width="6.8" height="16"/><text class="wert" x="200.8" y="414.0">36,3 s</text><rect class="eigen" x="340" y="402" width="14.3" height="16"/><text class="wert" x="358.3" y="414.0">1,14 GiB</text><rect class="eigen" x="490" y="402" width="80.0" height="16"/><text class="wert" x="574.0" y="414.0">536 MB</text><rect class="eigen" x="640" y="402" width="5.8" height="16"/><text class="wert" x="649.8" y="414.0">0,089 s/Mpx</text><text class="name eigen" x="0" y="436.0">Heroic CLI kompakt</text><rect class="eigen" x="190" y="424" width="7.9" height="16"/><text class="wert" x="201.9" y="436.0">42,2 s</text><rect class="eigen" x="340" y="424" width="14.6" height="16"/><text class="wert" x="358.6" y="436.0">1,17 GiB</text><rect class="eigen" x="490" y="424" width="54.9" height="16"/><text class="wert" x="548.9" y="436.0">368 MB</text><rect class="eigen" x="640" y="424" width="6.7" height="16"/><text class="wert" x="650.7" y="436.0">0,104 s/Mpx</text><text class="welt" x="0" y="468">15k</text><text class="name fremd" x="0" y="488.0">squaremap</text><rect class="fremd" x="190" y="476" width="7.6" height="16"/><text class="wert" x="201.6" y="488.0">245 s</text><rect class="fremd" x="340" y="476" width="80.0" height="16"/><text class="wert" x="424.0" y="488.0">6,46 GiB</text><rect class="fremd" x="490" y="476" width="2.8" height="16"/><text class="wert" x="496.8" y="488.0">150 MB</text><rect class="fremd" x="640" y="476" width="80.0" height="16"/><text class="wert" x="724.0" y="488.0">1,09 s/Mpx</text><text class="name fremd" x="0" y="510.0">Pl3xMap</text><rect class="fremd" x="190" y="498" width="3.5" height="16"/><text class="wert" x="197.5" y="510.0">112 s</text><rect class="fremd" x="340" y="498" width="79.5" height="16"/><text class="wert" x="423.5" y="510.0">6,42 GiB</text><rect class="fremd" x="490" y="498" width="6.6" height="16"/><text class="wert" x="500.6" y="510.0">349 MB</text><rect class="fremd" x="640" y="498" width="36.7" height="16"/><text class="wert" x="680.7" y="510.0">0,498 s/Mpx</text><text class="name fremd" x="0" y="532.0">Dynmap flat</text><rect class="fremd" x="190" y="520" width="80.0" height="16"/><text class="wert" x="274.0" y="532.0">2 586 s</text><rect class="fremd" x="340" y="520" width="37.4" height="16"/><text class="wert" x="381.4" y="532.0">3,02 GiB</text><rect class="fremd" x="490" y="520" width="65.9" height="16"/><text class="wert" x="559.9" y="532.0">3 480 MB</text><rect class="fremd" x="640" y="520" width="52.3" height="16"/><text class="wert" x="696.3" y="532.0">0,710 s/Mpx</text><text class="name eigen" x="0" y="554.0">Heroic Plugin</text><rect class="eigen" x="190" y="542" width="9.9" height="16"/><text class="wert" x="203.9" y="554.0">319 s</text><rect class="eigen" x="340" y="542" width="18.0" height="16"/><text class="wert" x="362.0" y="554.0">1,45 GiB</text><rect class="eigen" x="490" y="542" width="79.8" height="16"/><text class="wert" x="573.8" y="554.0">4 214 MB</text><rect class="eigen" x="640" y="542" width="6.5" height="16"/><text class="wert" x="650.5" y="554.0">0,088 s/Mpx</text><text class="name eigen" x="0" y="576.0">Heroic CLI</text><rect class="eigen" x="190" y="564" width="9.9" height="16"/><text class="wert" x="203.9" y="576.0">320 s</text><rect class="eigen" x="340" y="564" width="16.2" height="16"/><text class="wert" x="360.2" y="576.0">1,31 GiB</text><rect class="eigen" x="490" y="564" width="80.0" height="16"/><text class="wert" x="574.0" y="576.0">4 223 MB</text><rect class="eigen" x="640" y="564" width="6.5" height="16"/><text class="wert" x="650.5" y="576.0">0,089 s/Mpx</text><text class="name eigen" x="0" y="598.0">Heroic CLI kompakt</text><rect class="eigen" x="190" y="586" width="11.4" height="16"/><text class="wert" x="205.4" y="598.0">369 s</text><rect class="eigen" x="340" y="586" width="15.9" height="16"/><text class="wert" x="359.9" y="598.0">1,28 GiB</text><rect class="eigen" x="490" y="586" width="56.7" height="16"/><text class="wert" x="550.7" y="598.0">2 991 MB</text><rect class="eigen" x="640" y="586" width="7.5" height="16"/><text class="wert" x="651.5" y="598.0">0,102 s/Mpx</text><text class="fuss" x="0" y="626">Kürzer ist besser.</text></svg>
